<?xml version="1.0" encoding="iso-8859-1"?>
<!-- Generator: Adobe Illustrator 16.0.0, SVG Export Plug-In . SVG Version: 6.00 Build 0)  -->
<!DOCTYPE svg PUBLIC "-//W3C//DTD SVG 1.1//EN" "http://www.w3.org/Graphics/SVG/1.1/DTD/svg11.dtd">
<svg version="1.1" id="Capa_1" xmlns="http://www.w3.org/2000/svg" xmlns:xlink="http://www.w3.org/1999/xlink" x="0px" y="0px"
	 width="587.911px" height="587.91px" viewBox="0 0 587.911 587.91" style="enable-background:new 0 0 587.911 587.91;"
	 xml:space="preserve">
<g>
	<g>
		<g>
			<path d="M86.452,501.459c26.937,26.936,58.315,48.088,93.265,62.871c36.207,15.314,74.642,23.08,114.239,23.08
				s78.033-7.766,114.239-23.08c34.95-14.781,66.328-35.936,93.265-62.871c26.937-26.938,48.091-58.316,62.873-93.266
				c15.313-36.207,23.078-74.643,23.078-114.239c0-39.597-7.765-78.032-23.078-114.239c-14.782-34.95-35.937-66.328-62.873-93.265
				s-58.314-48.09-93.265-62.873C371.988,8.264,333.552,0.5,293.955,0.5s-78.032,7.765-114.239,23.079
				c-34.95,14.782-66.328,35.936-93.265,62.873c-26.937,26.937-48.09,58.315-62.873,93.265C8.265,215.922,0.5,254.357,0.5,293.955
				c0,39.596,7.765,78.032,23.079,114.239C38.361,443.143,59.515,474.521,86.452,501.459z M293.955,43.34
				c138.411,0,250.615,112.204,250.615,250.615S432.366,544.568,293.955,544.568S43.34,432.365,43.34,293.955
				S155.544,43.34,293.955,43.34z"/>
			<path d="M293.955,587.91c-39.663,0-78.164-7.778-114.434-23.119c-35.01-14.81-66.442-35.998-93.423-62.979
				c-26.983-26.984-48.172-58.417-62.979-93.425C7.778,372.118,0,333.617,0,293.955c0-39.664,7.778-78.165,23.118-114.434
				c14.807-35.008,35.996-66.44,62.979-93.423c26.982-26.983,58.415-48.172,93.423-62.979C215.791,7.778,254.292,0,293.955,0
				c39.666,0,78.167,7.778,114.433,23.118c35.009,14.807,66.441,35.997,93.424,62.979c26.984,26.984,48.174,58.416,62.98,93.423
				c15.339,36.269,23.117,74.77,23.117,114.434c0,39.664-7.778,78.165-23.117,114.433c-14.808,35.008-35.997,66.44-62.98,93.425
				c-26.985,26.984-58.417,48.173-93.424,62.979C372.12,580.132,333.619,587.91,293.955,587.91z M293.955,1
				c-39.528,0-77.898,7.751-114.044,23.039c-34.89,14.757-66.215,35.875-93.106,62.766c-26.892,26.892-48.009,58.217-62.766,93.106
				C8.752,216.055,1,254.425,1,293.955c0,39.528,7.751,77.898,23.039,114.044c14.756,34.888,35.874,66.214,62.766,93.106
				c26.89,26.889,58.215,48.006,93.106,62.764c36.146,15.289,74.515,23.041,114.044,23.041s77.899-7.752,114.044-23.041
				c34.887-14.754,66.212-35.871,93.105-62.764c26.893-26.894,48.01-58.219,62.766-93.106
				c15.288-36.146,23.039-74.516,23.039-114.044c0-39.529-7.751-77.899-23.039-114.044c-14.756-34.888-35.873-66.213-62.766-93.106
				C474.213,59.914,442.888,38.796,408,24.039C371.856,8.751,333.487,1,293.955,1z M293.955,545.068
				c-67.075,0-130.136-26.12-177.565-73.55C68.961,424.09,42.84,361.029,42.84,293.955c0-67.075,26.121-130.136,73.55-177.565
				s110.49-73.55,177.565-73.55c67.075,0,130.135,26.121,177.565,73.55s73.55,110.49,73.55,177.565
				c0,67.075-26.12,130.135-73.55,177.564C424.09,518.948,361.031,545.068,293.955,545.068z M293.955,43.84
				c-66.808,0-129.617,26.017-176.858,73.257c-47.24,47.241-73.257,110.05-73.257,176.858s26.017,129.617,73.257,176.857
				c47.241,47.24,110.05,73.257,176.858,73.257s129.618-26.017,176.858-73.257s73.257-110.049,73.257-176.857
				s-26.017-129.617-73.257-176.858C423.573,69.856,360.763,43.84,293.955,43.84z"/>
		</g>
		<g>
			<path d="M250.831,425.711c10.99,12.049,26.646,18.959,42.955,18.959c16.308,0,31.964-6.91,42.954-18.959l123.952-135.886
				c7.974-8.742,13.044-19.497,14.662-31.101c1.492-10.702-0.039-21.614-4.428-31.557c-4.388-9.942-11.418-18.427-20.33-24.537
				c-9.664-6.625-21.026-10.127-32.859-10.127H169.833c-11.833,0-23.195,3.502-32.859,10.127
				c-8.912,6.11-15.942,14.595-20.331,24.537s-5.919,20.854-4.427,31.557c1.618,11.604,6.688,22.359,14.663,31.101L250.831,425.711z
				 M169.833,235.343h247.905c13.295,0,20.263,15.789,11.303,25.611L305.089,396.84c-3.034,3.326-7.169,4.99-11.304,4.99
				s-8.27-1.664-11.304-4.99L158.53,260.954C149.57,251.132,156.539,235.343,169.833,235.343z"/>
			<path d="M293.786,445.17c-16.448,0-32.239-6.97-43.324-19.122L126.51,290.162c-8.042-8.817-13.156-19.664-14.788-31.369
				c-1.505-10.794,0.039-21.8,4.465-31.827c4.426-10.027,11.516-18.584,20.505-24.748c9.748-6.682,21.208-10.214,33.142-10.214
				h247.903c11.934,0,23.395,3.532,33.143,10.214c8.988,6.162,16.079,14.72,20.504,24.748c4.427,10.027,5.971,21.033,4.466,31.827
				c-1.632,11.705-6.746,22.552-14.788,31.369L337.109,426.048C326.025,438.2,310.234,445.17,293.786,445.17z M169.833,193.003
				c-11.731,0-22.996,3.472-32.576,10.04c-8.835,6.058-15.805,14.469-20.156,24.326c-4.351,9.857-5.869,20.676-4.39,31.286
				c1.604,11.504,6.63,22.166,14.537,30.833l123.952,135.886c10.896,11.945,26.417,18.796,42.585,18.796s31.689-6.851,42.585-18.796
				l123.952-135.886c7.905-8.667,12.932-19.33,14.536-30.833c1.479-10.61-0.039-21.428-4.39-31.286
				c-4.351-9.858-11.32-18.27-20.156-24.326c-9.58-6.568-20.845-10.04-32.576-10.04H169.833z M293.786,402.33
				c-4.432,0-8.686-1.878-11.673-5.153L158.16,261.291c-4.28-4.692-5.346-11.217-2.781-17.027s8.103-9.42,14.455-9.42h247.905
				c6.352,0,11.89,3.609,14.454,9.42c2.564,5.811,1.499,12.335-2.782,17.028L305.458,397.177
				C302.471,400.452,298.216,402.33,293.786,402.33z M169.833,235.843c-5.949,0-11.138,3.381-13.54,8.824
				c-2.402,5.443-1.404,11.554,2.606,15.95l123.952,135.886c2.798,3.067,6.783,4.827,10.934,4.827c4.15,0,8.136-1.76,10.935-4.827
				l123.952-135.886c4.01-4.396,5.008-10.507,2.605-15.95c-2.401-5.442-7.59-8.824-13.539-8.824H169.833z"/>
		</g>
	</g>
</g>
<g>
</g>
<g>
</g>
<g>
</g>
<g>
</g>
<g>
</g>
<g>
</g>
<g>
</g>
<g>
</g>
<g>
</g>
<g>
</g>
<g>
</g>
<g>
</g>
<g>
</g>
<g>
</g>
<g>
</g>
</svg>
