<?xml version="1.0" encoding="utf-8"?>
<!-- Svg Vector Icons : http://www.onlinewebfonts.com/icon -->
<!DOCTYPE svg PUBLIC "-//W3C//DTD SVG 1.1//EN" "http://www.w3.org/Graphics/SVG/1.1/DTD/svg11.dtd">
<svg version="1.1" xmlns="http://www.w3.org/2000/svg" xmlns:xlink="http://www.w3.org/1999/xlink" x="0px" y="0px" viewBox="0 0 1000 1000" enable-background="new 0 0 1000 1000" xml:space="preserve">
<metadata> Svg Vector Icons : http://www.onlinewebfonts.com/icon </metadata>
<g><g transform="translate(0.000000,511.000000) scale(0.100000,-0.100000)"><path d="M3297.4,4953.1l-54.4-56.9V3381.6V1867.1h-1517H206.4l-52-56.9l-54.4-56.9V107.5v-1648.2l56.9-52l56.9-54.5h1514.5h1514.6v-1517v-1519.5l56.9-52l56.9-54.5h1645.7h1648.2l52,56.9l54.5,56.9v1514.6v1514.6h1517h1519.5l52,56.9l54.5,56.9V112.5v1648.2l-56.9,52l-56.9,54.4H8271.6H6757.1v1517v1519.5l-56.9,52l-56.9,54.4H4997.5H3349.3L3297.4,4953.1z M6385.9,3124.2V1609.7l54.5-56.9l52-56.9h1519.5h1517V110v-1385.9H8014.2H6499.7l-56.9-54.5l-56.9-52v-1519.5v-1517H5000H3614.1v1514.6v1514.6l-54.4,56.9l-52,56.9H1988.2h-1517V110v1385.9h1514.6h1514.5l56.9,54.4l56.9,52v1519.5v1517H5000h1385.9V3124.2z"/></g></g>
</svg>