<?xml version="1.0" encoding="utf-8"?>
<!-- Svg Vector Icons : http://www.onlinewebfonts.com/icon -->
<!DOCTYPE svg PUBLIC "-//W3C//DTD SVG 1.1//EN" "http://www.w3.org/Graphics/SVG/1.1/DTD/svg11.dtd">
<svg version="1.1" xmlns="http://www.w3.org/2000/svg" xmlns:xlink="http://www.w3.org/1999/xlink" x="0px" y="0px" viewBox="0 0 1000 1000" enable-background="new 0 0 1000 1000" xml:space="preserve">
<metadata> Svg Vector Icons : http://www.onlinewebfonts.com/icon </metadata>
<g><path d="M879.4,651c10,20.2,15.9,42.7,15.9,66.4c0,82.4-67.1,149.4-149.4,149.4l-507.6,0c-88.5-2.4-160.6-75-160.6-161.8c0-89.2,72.6-161.8,161.8-161.8c6,0,12,0.4,17.8,1.1l25.2,2.8l9.7-23.2c16-37.7,40.8-69.7,71.4-94.1l-43.4-50.3h-2.6c-31.5,26.1-58.1,58.5-77.5,96.1h-0.6C113,475.6,10,578.6,10,705.1c0,122.7,100.5,225.1,224.5,229.5l511.3,0.1c119.8,0,217.2-97.5,217.2-217.2c0-37-9.7-71.8-26.2-102.5L879.4,651L879.4,651z"/><path d="M677.2,541.8c-43.3,0-84.1-16.9-114.7-47.5c-30.7-30.6-47.5-71.4-47.5-114.7c0-43.3,16.9-84.1,47.5-114.7c30.6-30.7,71.4-47.5,114.7-47.5s84.1,16.9,114.7,47.5c30.6,30.6,47.5,71.4,47.5,114.7s-16.9,84.1-47.5,114.7C761.3,524.9,720.5,541.8,677.2,541.8L677.2,541.8z M677.2,263.3c-64.1,0-116.2,52.1-116.2,116.2s52.1,116.2,116.2,116.2s116.2-52.1,116.2-116.2S741.3,263.3,677.2,263.3L677.2,263.3z M699.9,85.8c0-11.3-9.1-20.4-20.4-20.4h-4.5c-11.3,0-20.4,9.1-20.4,20.4v60.7c0,11.3,9.1,20.4,20.4,20.4h4.5c11.3,0,20.4-9.1,20.4-20.4V85.8L699.9,85.8z M697.2,612.6c0-11.3-9.1-20.4-20.4-20.4h-4.5c-11.3,0-20.4,9.1-20.4,20.4v60.7c0,11.3,9.1,20.4,20.4,20.4h4.5c11.3,0,20.4-9.1,20.4-20.4V612.6L697.2,612.6z M969.6,403.5c11.3,0,20.4-9.1,20.4-20.4v-4.5c0-11.3-9.1-20.4-20.4-20.4h-60.7c-11.3,0-20.4,9.1-20.4,20.4v4.5c0,11.3,9.1,20.4,20.4,20.4L969.6,403.5L969.6,403.5z M442.8,400.9c11.3,0,20.4-9.1,20.4-20.4v-4.5c0-11.3-9.1-20.4-20.4-20.4h-60.7c-11.3,0-20.4,9.1-20.4,20.4v4.5c0,11.3,9.1,20.4,20.4,20.4H442.8L442.8,400.9z M900.5,188.8c8-8,8-20.9,0-28.8l-3.2-3.2c-8-8-20.9-8-28.8,0l-42.9,42.9c-8,8-8,20.9,0,28.8l3.2,3.2c8,8,20.9,8,28.8,0L900.5,188.8L900.5,188.8z M526.2,559.4c8-8,8-20.9,0-28.8l-3.2-3.2c-8-8-20.9-8-28.8,0l-42.9,42.9c-8,8-8,20.9,0,28.8l3.2,3.2c8,8,20.9,8,28.8,0L526.2,559.4L526.2,559.4z M866.6,604.2c8,8,20.9,8,28.8,0l3.2-3.2c8-8,8-20.9,0-28.8l-42.9-42.9c-8-8-20.9-8-28.8,0l-3.2,3.2c-8,8-8,20.9,0,28.8L866.6,604.2L866.6,604.2z M496,229.8c8,8,20.9,8,28.8,0l3.2-3.2c8-8,8-20.9,0-28.8l-42.9-42.9c-8-8-20.9-8-28.8,0l-3.2,3.2c-8,8-8,20.9,0,28.8L496,229.8L496,229.8z"/></g>
</svg>