<?xml version="1.0" encoding="utf-8"?>
<!-- Svg Vector Icons : http://www.onlinewebfonts.com/icon -->
<!DOCTYPE svg PUBLIC "-//W3C//DTD SVG 1.1//EN" "http://www.w3.org/Graphics/SVG/1.1/DTD/svg11.dtd">
<svg version="1.1" xmlns="http://www.w3.org/2000/svg" xmlns:xlink="http://www.w3.org/1999/xlink" x="0px" y="0px" viewBox="0 0 1000 1000" enable-background="new 0 0 1000 1000" xml:space="preserve">
<metadata> Svg Vector Icons : http://www.onlinewebfonts.com/icon </metadata>
<g><g><g><path d="M500,10C229.8,10,10,229.8,10,500s219.8,490,490,490s490-219.8,490-490C990,229.8,770.2,10,500,10z M500,922.4C267.1,922.4,77.6,732.9,77.6,500S267.1,77.6,500,77.6S922.4,267.1,922.4,500C922.4,732.9,732.9,922.4,500,922.4z"/><path d="M657.6,164c0,0,0.1,0,0.1,0.1c0,0,0.2,0,0.3,0C657.8,164,657.7,164,657.6,164z"/><path d="M652.7,658.9c-0.7,1.4-0.7,4.9-1.6,6c-3.5,3.4-10.3,11-15.1,14.1c-6.3,3.6-13.4,3.6-14.2,13c-0.2,3.2,2.5,7.5,2.4,9.6c0.1,0.4-4.7,8.6-4.7,8.6c-0.3,0.1-4.2,3.4-4.4,4c-0.2,2.7-0.4,5.6,1.9,7.1c0.1,1.1-0.7,2.1-0.7,4.5c-0.3,4.7,3.4,9.1,8.4,8.9c12.1-1.3,15-12.7,19.3-21.3c5.4-10.8,10.6-20,11.9-34.3c0.3,0,2.4,0.5,3.3,0.7c0.1-0.8,0.3-2,0.3-2.8C658.1,671.8,659.5,659.4,652.7,658.9z"/><path d="M811.7,536.8c-0.1,2.9,1.4,5.6,3.3,5.6c2.8-0.3,4.7-5,4.9-8.9c0.4-6.7-3.8-9.1-5.6-14.1C814,525.9,811.9,530.5,811.7,536.8z"/><path d="M865.4,547.4c-0.7-0.1-0.7,0.2-0.7-0.7c-0.4-2.5-0.7-5-2.1-6c-1.8,0.4-0.6-0.1-2.3,0.4c-0.7-1.4,0.2-1.6-1.4-1.4c-0.4,0-0.5-0.2-0.5,0.1c-0.1,0.5-0.1,1-0.1,1.4c0.3,1.8,0.3,6.2,1.7,6.6c1.4,0.7,1.4-0.3,1.5,1.3c0,1.7,0.4,3.2,0.7,4.9c0.2,2.3,1.6,1.3,2,5c0,1.4-0.2,4.7,0.3,5.6c0.4,0.5,0.9,0.2,0.9,0.6c0.2,0.5-0.2,1.4-0.1,1.4c0.8-4.5,1.6-9,2.2-13.6c-0.1-0.5-0.1-0.8-0.4-1.4C866.5,550,866.2,548.1,865.4,547.4z"/><path d="M863.3,570.3c-0.4,0.3-0.1,0.2-0.5,0.2c0,0.2-0.1,0.5-0.1,0.7c-0.2,1.2-0.2,3.4,0.7,3.5c0.3-1.7,0-2.6-0.1-3.5C863.2,570.9,863.2,570.6,863.3,570.3z"/><path d="M861.8,560.8c0,0.4-0.1,0.3-0.4,0.4c0.1,0,0.1,0,0.1,0c-0.1,1,0.2,3.2,0.8,3.4C863.4,563.9,862.4,561.9,861.8,560.8z"/><path d="M654.5,190.9c2.9,0.9,1.6,1.6,3.1,2.6c0.3,0.5,3,0.6,4.2,0.9c0.6,0,0.9,0.4,1.3,0.7c4.3,0.9,8.5,1.9,12.9,2.9c-0.2-0.1-0.3-0.2-0.6-0.4c-4-2.1-9.4-3.9-10.2-6c-1-4,8.8-4.9,16.4-3.4c2.7,0.5,2.9-0.5,6.7,0.6c1.6,0.5,1.7-0.2,2.8-0.2c4.6,0.8,8.3,2.2,12.9,3.1c1,0.2,2.7,0.7,4.5,1.3c-2-1.4-4-2.7-5.9-4c-3.5-0.7-7.1-1.2-11.7-2.5c-1.7-0.5-3-1.5-4.8-2c-2.8-0.9-2.5-0.2-4.5-0.8c-5.7-1.6-9.1-0.3-13-1.3c-2.6-0.6-3.7-0.6-6.2-1.2c-1-0.5-1.8,0-1.5,0.2c0,0.5,1.2,0.6,1.5,1.2c0.5,1.4-7.6,0.4-7.6,1.4c0.4,0.6,2.2,1,2.9,1.8c-2.6-0.2-7.7-1.1-7.6,0c0.2,0.4,0.3,0.4,0.3,0.9c0.4,1.5-4.8-0.1-4.5,1.4c0.5,0.9,3.4,1.8,3.4,1.8S654.1,190.8,654.5,190.9z"/><polygon points="675.4,197.6 675.5,197.7 675.6,197.7 "/><path d="M746.3,224.9c0.9,0.5,2.6,0.8,4.4,1.6c-2.1-2-4.3-4-6.4-5.8c-0.1,0.3-0.3,0.6-1,0.7C743,221.6,744.7,224,746.3,224.9z"/><path d="M752.2,227.8c-2.1-1-4-1.9-4.1-1.7c1.1,2.1,3.6,5.3,1.1,4.4c-0.1-0.1-0.7,0.5-1.7,0.9c-2.8,0.9-4.5,0-5.6-0.2c-1.6,0-0.8-2.5-1.1-2.8c-0.8-0.1,3.7-0.6,3.4-1.3c-0.2-0.7,0.8-0.9,0.3-1.6c-0.8-0.8-3.2-2.2-3.9-3.1c-1.1-2.1-1.1-3.5-2.1-5.1c-1.4-2.2-2.9-2.8-3.5-3.6c-0.1-0.3,0-0.6,0.3-0.7c-2.2-1.8-4.5-3.6-6.7-5.4c0,0-0.1,0-0.1,0h0.1c-0.8-0.7-1.8-1.4-2.6-2c-0.6-0.1-0.7,0-0.5,0.5c0,0.1-0.1,0.3,0,0.4c-1-0.4-2-0.6-2.5-0.7c-2-0.2-1.9,1.8-3.5,1.9c-1.9,0.1-3.3-0.6-4.3-0.1c-1.5,0.7,2.4,1.8,2.8,2.6c1.1,1.8-1.1,1.5,0.6,2.5c1.9,0.9,4.2,2,6.4,3.3c3.7,3.4,3.6,4.2,0.6,3.1c-1.9-0.6-5-2.8-7.8-4.2c-5.2-2.5-10.6-4.9-13.7-6.4c-22.1-8.5-11.4-0.8-12-0.6c-9.7,0.1-5.3-2.8-8.3-3.8c-5.2-0.9-16,0.4-24.6-2.9c-0.5-0.6,4.3-0.9,3.3-1.3c-4.1-1.1-12-0.9-20.4,0c-3.3,0.3-6.1-0.8-9.1-0.5c-4.6,0.7-0.7,4.1-10,2.2c-2.2-0.5-7.8-2.7-7-3.8c0.5-0.7,8.8,1.4,8.7,0.4c-0.7-2.7-12.5-7.6-16-4.8c-1.1,0.8,3.7,1.4,0.4,4.5c-0.8,0.5,3.6,1.8,3.8,3.3c0,1.1-6.4,0.6-8.1,0.2c-0.8-0.3,0.2-2-1.8-2c-4.3,0.1-11.6,2.7-14,2.6c-2.7,0.5,2.7,3.1,1.4,4.1c-1.4,0.7-9.1-1-21.3-3.9c0.8,1.2,1.9,2.5,3,3.6c2.5,0.6,4.7,1.2,7.2,1.9c-4.7-0.2-7.2,1-10.8-0.5c-1.9-0.7-4.5-0.9-5.9-2.1c-1.3-0.7,0.1-1.9-0.9-3.1c-2-2.2-5.8-4.5-6.9-5.3c8.6,0.6,13.1,0.7,21.7,2.2c11.3,1.8,32.9-2.2-1.5-9.6c-10-2-16.3-4-23.8-4.6c-0.6,0-5.1-1.6-10.5-1.6c-0.5-0.1-5.2-0.3-7.5-0.6c0.1-0.5-1.6-0.4-3.8-1.1c5.2-0.5,7,0.2,8.9-1.3c-1.8-0.5-7-1.3-7.9-1.4c-1.9-0.2-2.6,0.3-3.3,0.8c-2.5-0.2-2-0.4-2.3-1.5c-3.5,0.4-5.2,0.7-8.4,1.6c-0.3-0.4-0.3-0.8-1.2-1.2c-3.8,0.4-5.1,1.9-9.7,1.9c1-0.9,4.6-0.8,4.7-2.1c0-1.1-8.6,0.7-12,0.7c-2.1,0-3.3-0.6-4.7-0.9c-0.7,0.2-4.6,0.6-4.8,1c0,0.6,1.5,0.6,3.3,0.7c-4.1,0.6-7.7,0.3-10.9,2c0-0.5,0.1-0.6,0-1.1c-4.7,0.1-5.5,1.7-8.4,2.1c0-0.4,0-0.5,0-0.8c-3.5,0.3-7.3,0.5-9.8,1.2c0.5,0.3,1.3,0.4,1.8,0.4c-1.4,0.4-5.9,0.7-7.4,0.7c-2.1,0-3.6,1-4.7,1.5c1.5,0,1.7-0.1,3.1,0c-0.3,0-2.9,1.2-3.8,1.4c-2.6,0.1-0.8,0-4.1,0c0.7-0.4-0.4,0-1.5-0.3c-0.5,0.4-1.4,0.7-1.8,1.1c-0.5-0.1-1.1-0.2-1.6-0.1c-1.4,0-2.6,0.5-3.1,1.4c0,0-1.3,0.9-0.4,0.7c-0.7,0.1-2.9,1-4,1.5c4.8,0,10.9-1.1,16-1.8c-1.1,1.5-6.9,4.7-11.2,5.7c-4.3,0.8-7.1,2.2-9.7,4c-0.1,0-2.2,2.1-2.2,2.1c-1.4,0.1-1.5,2.6-3.9,3.6c-6.3,2.5-10.1,4.7-19.1,6.6c1.7,0,2.5,0.1,4.7,0.1c-7.1,0.5-7.4,2.5-11.2,3.2c-4.4,0.8-6.7,2.2-9.2,4c-1.2,0.7-3.3,1.7-3.5,3.1c-0.4,2.6,1.5,6.1,4.3,7.6c-0.9,0.6-3.3,2-3.5,2.7c1.5-0.3,3.5-0.6,5.3-1c0,0.5,0,0.9-0.2,1.4c-0.7,0.3-3.4,1-3.5,1.8c-0.1,0.4,7.5,1.9,8.8,1.8c8.5-0.8,16.7-4.4,21.2-7.6c1.3,0.7,1.7,1.4,3.9,2c-0.4,0.3-1.1,0.9-1.1,1.4c-0.2,1.7,2.9,1.8,4,3.2c1.3,2,0.7,3.4,4.2,4.9c0,0.3-0.3,0.7-0.5,1c0,0.5,1.5,5.3,3.3,5.5c5.3-0.5,6.4-4.9,10-5.2c1.4-0.1,4.8,0,7.8-0.1c0.9-1.9,5.6-2.4,6.6-4.9c-1-0.2-3.1-0.5-3.1-1.6c0-2-0.5-5.7,3.8-5.9c2.1-0.1,8.5-2.5,8.5-4.1c0.1-1.8-0.7-4.2-4.6-4.3c0.1-0.7-0.6-1.4-1.6-1.6c-0.9-0.9-2-1.6-3.2-2.4c3.3-0.8,1.4-2.4,2.9-3.7c2.2-1.6,5.3-2.2,8.9-3.3c4.4-1,14.1-4.1,14.3-6.2c0.6-0.5,0-0.8,0.1-1.9c0.1-2.5,5.1-4.4,12.1-4.5c5.1-0.1,11.8,0.3,11.9,2.5c-0.1,1.6-8.8,4.7-11.7,5.4c-5.4,1.6-4,4.2-12.8,4.3c0.4,0.7-0.6,3.9-0.7,4.5c0.1,1.1,0.4,2.3,2.5,2.6c-0.6,0.4-2.9,1.1-3,2.1c0,2,4.6,3,9,3c0.1,1,0.9,1.1,3.7,1.3c3.8-0.1,6.1,0.4,10.4,0c4.1,0.3,8.2-0.6,10.3-2.5c1.7,1,10.7,1.2,12.4,2.8c-2.6,0.8-4.8,3.2-7.6,3.2c-3.7,0-11.1-1.6-15.9-1.7c-4.7,0.2-17.7,4.6-14.5,6.2c3.8,1.6,6.7-1.4,10.5,1.6c2.8,2.2-1.4,4.5-3,4.6c-4.3,0.1-4.9-2.2-8.6-2.4c-3.7,0.3-7.4,6.4-7.6,8.9c0,3.8-7.6,2.7-8.2,6.3c-2.6,0.3-5.1,0.4-7.8,0.4c0.4-0.4,0.7-0.8,0.9-1.1c-1.3-0.3-4.4-0.2-7.3-0.2c-2.6,0.3-5.9,1.8-8,2.2c-3.1,0.9-5.3-0.1-9,1c-0.9,0.3-1.3,1.1-3.7,1.2c0,0-3.4-1.2-3.5-1.4c0-0.3,1.1-0.8,1.3-1.3c-4.9,0.1-8.9,2.5-14.7,3c-0.6-0.1-5.4-4.3-5.8-4.8c-1.6,0.2,1.6,3.1-0.7,3.4c0-0.4,0.1-0.8,0.1-1.2c-1,0-2.2-0.7-2.1-1.8c0.2-2.2,2.8-2.9,4.9-4.3c0.5-0.1,2.5-0.7,2.5-1.2c0-0.3,0-0.6,0.1-0.9c-1.4,0.2-4,0.2-3.9-0.9c0.1-1.1,0.4-1.6,1.5-2.9c0.1-0.4,0.1-0.8,0.1-1.3c-5.3,2.3-13.2,3.1-13.8,7.7c-0.2,2.5,2.9,3.2,3.6,6.1c0,0.1,1.3,2.1,1.2,2.7c-0.4,0.7-3.5,2-4.8,2.2c-1.8,0.1-3.5-0.1-5.1,0.7c-0.4,0.1-1.3,0.8-1.8,0.6c-1.2,0.3-0.2-0.1-2.9,0.2c-4.7,0.3-12.5,5.7-15.6,7.9c-0.2,0.1-2.2,1.1-2.2,1.7c-0.2,1.5,0.2,3.2-1.4,4.4c-0.7,0.5-9.2,3.5-10.5,3.9c-0.8,0.2-1.8,0.4-2.8,0.6c-1.5,3.4,0.2,4.3-5.9,5c-0.6,0.9-2.1,2.1-3.6,2.4c-2.5,0.3-4.3-0.2-5.8-1.1c-0.6,0.1-1.5,0.2-2,0.3c-0.2,0.2-0.1,0.7-0.1,1.1c0.3,0.3-0.7,2.4,0.7,2.6c0,0.3-0.1,0.7-0.1,1c-0.7,0.1-3,0.9-4.7,1.2c-1.4,0-4.7,0-5.1-0.8c-2.1,0.7-7.5,2.1-7.7,3.3c0,0.1,0.1,0.3,0.1,0.5c0,2.1,8.1,2.2,11.3,2.5c0.9,0.2,1,0.6,2.3,0.7c-0.2,2.1,1.8,7.2,5.9,6.9c0,1,1,0.7,1,2.1c-0.1,0.4-0.6,1.7-1,2.2c0.1-0.1,0.3-0.2,0.4-0.3c0,0.8-0.2,3.5-0.2,4c-0.2,2.8-3.8,2.9-4.1,5.9c-0.5,0.1-3.6,1-5.1,1.2c-2,0.2-3.2-0.7-5.5-0.1c-3.2,0.4-6.3,0.7-9.5,0.9c-0.9,0-2.5,0-3.2-0.5c-3.1,0.3-5.7,0.7-8.7,0.9c-1,0.5-2.2-0.3-2.8-0.2c-1,0.1-7.7,4-8,4.8c-0.1,1.1,1.7,3,1.5,5.2c-0.5,3.7-2.5,7.7-2.8,11.4c-0.2,0.9-2.2,1.7-2.4,3.6c-0.2,1,1.3,1.9,2.8,1.8c-0.3,2.9-0.5,6-0.8,9.1c-0.1,0.5,0.2,1.4,1.4,1.4c3.2-0.2,4.9-1.8,8.4-2.1c4.3-0.4,4.1,6.6,7.1,6.5c4.3-0.5,7.2-4.4,12-4.9c0.9,0,4.7-1.1,6.4-0.9c0.1,0,0-0.1,0-0.2c4.1,0.9,4.7-3.9,7.3-5.4c4.4-2.4,6.1-6.3,8.9-9.8c-0.8-0.1-1.9-0.8-1.9-1.8c0.4-3.2,6.6-9.8,10.5-10.8c4.5-0.9,9-2.4,10.6-5.5c-0.4-0.9-0.7-2.2-1-3.2c0.3-2,3.5-3.8,6.9-4.1c4-0.4,2.9,1.4,7.6,1.1c4.9-0.2,7.6-2.9,11.8-4.7c2-0.6,2.2-2.5,6.2-2.8c8.2-0.4,13.1,3.2,13,8.9c0.3,0.8,3.6,1.6,5.1,2.5c3.7,2.4,5,3.8,12,4.5c0,0.7,3.5,1.6,4.2,1.5c0.3,0.7,10.5,8.1,11,8.3c0.4,1.1,2.2,2,2.2,4.3c0,1.5-1.1,4.3-4,4.3c0,0.5,0.9,1.2,2.4,1c3.2-0.1,3.2-3.5,5.4-4.9c0,0,2.1-1.7,2.1-2.4c0.2-1.9-2.1-1-2-3c0-1.3,0.3-4,3.1-4c2.8,0,3.9,1.9,7.2,2.2c0.7-3.3-5.7-5.7-10.2-7.2c-1.1-0.2-6.6-1-5.7-2.9c0.1-0.3,0.4-0.8,0.4-1.2c-3.3,0-5.5,0.8-8.9,0c-1.4-0.4-3.6-4.3-4.4-6.3c-0.6-1.1-2.2-3.6-5.6-4.5c-2.6-0.5-4.5-1.3-4.4-3.5c-0.1-0.7,0.6-2,1-2.7c-0.3,0-1-0.6-1.1-0.8c0.1-1.4,4.8-1.8,7.4-2.9c1,0.8-0.2,4,2.7,3.8c2.3,0,4.4-0.2,6.7-0.2c0.1,3.6,6.6,9.3,11.6,9.4c0.8,0,2.3-0.1,3.1-0.1c0,2.1,3.5,2.2,6.7,3.2c3.1,1.1,8,4.1,8,6.3c0,1.1-0.1,2.7-0.1,4c-0.1,3.1-1.1,3.5,1.7,5.5c2.1,1.4,3.7,2.9,4.7,4.9c0,0.3,0.6,1.7,1.3,1.8c0.9-0.2,2.9-0.1,3.9-0.1c-0.4,0.6-3,3.5-3,4.8c0,3.6,4.9,8,8.6,8c0.8,0.1,2.4,0,3.2,0c-2.4-0.8,0-3.6,0-4.7c0.1-1.3-0.8-4.8-1.3-5.5c0-0.3,0-0.9,0-1.3c0.9,0.6,3.3,4.2,5.9,4.8c0.1,0,0.3,0,0.5,0c0.3-1.1,3-3,3.9-3.4c-0.1-0.4-0.6-1.1-0.9-1.4c-1.4-0.1-7.9-4-8-4.4c0-0.4,0.7-1.1,0.9-1.9c-1-0.9-2.8-2.2-4.3-3.4c0-0.6,1.7-1.8,2.5-1.7c2.2,0.1,2.4,2.4,5.9,2.3c0.3-1,0.4-2.3,0-3.4c2.9-0.7,3.8-1.9,7.5-2.1c4.2,0,4.2,1.6,7.8,1.8c2.9,0.2,4.6,0.3,7.5-0.7c2.1-0.5,6.3-0.5,8.3-0.9c0.8-0.3,2.2-0.1,2.9-0.6c-1.4-1.5-7.4-3.6-7.5-6.6c0-2.1,4.1-5.3,6.3-6.6c0-1.1,0-2.8-0.1-3.9c0.5-0.7,0.6,0.4,1.4-2.2c0-1.2,2.3-2.1,4.6-2.4c-0.1-0.7-0.1-1.6-0.3-2.3c4.9-0.7,5.4-6.3,10.4-6.3c1.3,0.1,6.7,2.5,13.1,3.1c0.7,0-4.6,1.9-4.1,2.4c3.6,2.8,7.1,5.8,8.7,5.9c3.1-0.1,13.4-2.7,15.2-4c-0.3,0.1-6.2-0.8-6.2-0.8c-0.7,0-3.7-0.5-3.9-2.3c0.2-1,15.7-4.6,21.6-5.6c0,0-2.9,2.1-3.8,2.3c0.4,0.7,6.6,4.9-6.3,6.7c6.3,8.8,30.1,10.2,31.3,22.5c0.3,0,0.7,0,0.9-0.1h0c-3.5,0.9-6.1,3.1-10.5,2.9c-4.2,0.1-8.2-0.4-12.5-0.6c-2.6-0.1-10.9-1.6-11.2-3.4c-5.1-0.3-4.8-2.4-10.9-2.7c-3.9-0.1-10-0.1-12.9,1c-2.5,0.8-6.4,2.9-9.2,2.9c-2.2,0-4.6-0.2-7-0.1c-0.8,0-5.3-0.9-5.4,0.7c-0.1,0.9,1.3,0.5,1.9,1.9c-4.2,1.2-23.6-1.4-24.1,3.4c0.1,0.7,2.3,0.8,3.9,0.8c-0.3,0.7,0,1,0,1.9c-0.1,3.1-2.4,2.8-4.8,4.2c3.3,1.4,5.7,2.7,7.8,5.4c-2.1,2.1,4.3,5.1,5.8,6.3c-0.2,0.3-1.4,1-1.9,1.2c0.6,0.1,2,0.1,2.5,0c4.5-1.7,6.6,3.6,11.1,3.8c4.1,0.1,3.1-4.6,7.9-4.6c4.9,0.3,9.4,5.6,14.2,5.9c6.7,0.1,7.7-2.4,11.3-4.8c0.7,0.7,2.3,1.6,4.6,1.7c1.4,0,2.5-1.3,4.2-1.7c0.1,0.6,0.1,1.5,0.1,2.1c-0.4,0.3-1.5,1-1.5,2c0.2,2.4,1.2,5.3,1.4,8.9c0,4.8-4.3,5.5-5.6,9.7c-1.3,4.2-1.9,6.3-3.4,11c-0.2,0.6-1.8,0.7-1.9,2.2c0.5,0.8,1.1,2.5,1.6,3.3c-0.2-0.5-0.9-1.5-1-2c-3.2,0.8-3.4,0.2-7,0.3c-5.1-0.1-9.7-2.3-14.3-2.2c-7.2-0.2-3.2,1.8-10.7,2c-8.2-0.3-18.4-3.3-26.1-5.8c-3.8-1.4-9,0.3-11.1-2.1c-0.7-1-3.5-1.8-3.5-4.8c-1.2-0.1-3.3,0.1-5.1,0c-0.2,0-0.5-0.3-0.7-0.4c-7.3,2.2-12.6,2-12.8,8.9c0,1.1,0,2.9,0,4.3c0,0.8-2.5,3-4.7,3.2c-17.3,0-26.3-13.3-41.4-13.5c-2.1,0.2-4.2,0.1-6.3,0.2c-4.4-0.1-9.9-4.3-9.9-9.4c0.2-3.2,3-4.8,3.1-7.9c0-1.5-2.6-2.4-2.7-4.4c0.3-2.6,3.1-2.2,3.5-5.4c-1,0.2-2.3,1.3-3.3,1.3c-3.6,0.1-2.2-3.3-6.5-3.3c-4.2,0.3-4.5,3.2-9,3.3c-2.4,0.3-3.6-1.1-6.5-1.1c-3.3,0.4-6.8,3.3-9.3,3.5c-1.4,0.1-4.5-1.8-7.5-1.7c-9.8,0.6-23.3,5.8-31.8,10c-2.7,1.3-6.9,3.8-11.2,4c-7.2,0.4-9.2-0.4-14-3.7c-2.2,1.8-3.1,6.7-4.9,8.9c-1,0.4-2.2,1.5-3.5,2.2c-5.3,6.5-10.5,7.6-16.1,14.5c-2.5,3.4-3.5,9.7-3.1,12.5c-2.2,3.2-5.6,8.1-8.4,10c-3.6,2.3-9.9,5.1-12.7,9c-4.9,6.9-8.3,14.5-10.9,22.5c-1.4,3.3-5.2,5.7-5.4,9.8c-0.2,8.2,3.3,14.2,3.2,23.2c0,5.2-3.2,14.8-6.9,17.2c1.4,2.9,4.2,6.7,4.2,9.6c0,1.4,0.7,3.4,0.9,6.5c-0.2,0-0.4,0-0.5,0c0.6,1.1,1.3,1.6,2.2,2.8c0.1,0.7,9.2,10.5,10.4,11.6c4.3,4.3,5.5,9,9.1,15.1c4.1,6.6,11.8,5.5,20,18.6c0.5,0.6,3.4,1.7,5.6,1.9c7.5,0.2,12.4-3.7,20.6-3.5c4.1,0.1,9.4,3.3,12.5,3.5c3.4,0,4-2.6,7.3-3.6c8-2.3,19.9-7.8,31-7.7c9.3,0.3,1.9,13.4,8.5,14c2.1,0,9.6-0.9,13.7-0.8c7.9,0.1,11.7,4.5,14.4,9.2c-2.3,1.9-2.1,8.1-2.1,10.8c0,0.6-0.9,1.4,0.1,3.2c-1.2,0.7-5,6.1-5,8.4c0.3,10.2,12.5,20.4,18.9,27.4c3,3.8,2.3,8.2,4.2,12.6c2.5,5,4.3,8.1,6.1,17.2c0.9,4.4,3,6.5,3.2,11.7c0.1,10.5-11.8,15.5-11.4,29c0.6,12.6,7.3,19.5,14,28.6c1.9,2.4,4.4,3.6,4.6,6.2c0,1.5,0.2,3.2,0.2,4.8c0.7,16,6.5,21.8,14,27.5c1.6,1.3,5.9,9.4,10.4,14.9c1.1,1.7,1.3,3.6-0.4,5c1.8,1.3,1.8,3.6,1.8,6.9c0.4,0,0.8-0.6,2.1-0.7c1.2,1.9,3.2,3.1,6.8,3.2c8,0.2,9.9-4.5,19-4.6c2.3,0,3.5,1.5,5.8,1.5c2,0,3.6-0.8,6.4-1.1c0.7-2.8,7.8-1.3,11.6-2.4c8.9-3.3,11.6-7.8,17.2-13.3c3.6-3.2,6.4-3.4,11.4-7.1c2.5-2.2,6.7-6.2,6.9-11.1c0.1-1.4-1.1-2.7-3-3.5c2.7-4.5-1-3.8,7.3-6.7c2.5-0.9,6.7-0.7,8.8-2.7c2.1-2,3.2-9.3,3.3-12.9c0.2-7-5.1-5.3-5-10.3c0.1-2.6,3.5-5.5,6.7-6c3.3-12.6,30.4-11.3,31.9-26.6c-0.1-1.3-0.4-2.7-1.6-3.8c0.2-4.1,0.4-8.2,0.6-12.7c0.2-1.3,0.6-3,0.9-4.7c0.3-0.2,1.7-2.1,1.7-3c0.1-3.8-8.1-8.2-8.1-15.4c0.3-6-3.5-11.4-3.4-18c0.4-5.7,5.9-7.4,7.8-12.8c2.7-8.2,8.6-7.5,14.1-12.2c2.1-1.9,2.7-9.8,5-11.6c5.7-4,11.8-7.6,17.8-12.3c8.4-6.4,10.7-12,17.6-20.9c5.4-7.5,15.5-25.3,15.9-37.7c0-1-0.8-1.9-1.5-3.2c-7.7,2.1-13.7,5.6-22.1,7.1c-3.3,0.4-5.5-1-8.8,0.1c-2.9,0.9-3.1,3.6-6.6,3.7c-3.8-0.1-6.8-6.9-9.6-9.2c2.2-2.7,0.2-3.1,0.2-6.9c-7.5-0.1-9.4-8.9-13-11.7c-4.2-2.8-6.4-3.1-10.2-6.6c-4.1-4.1-1.8-9.4-5.8-14.9c-3.6-4.4-8.6-9.4-11-15.4c-0.1-3.9-0.1-7.6-0.1-11.6c-3.5-2.6-9.9-7.1-8.8-11.8c-7.2-12.8-14-25-21.3-37.5c0-0.9-0.1-2.6-0.1-3.6c3.9,4,7.9,13.1,12.9,14.1c0.7-2.2,2.9-7.2,4-10.5c-0.5,2.7-1.1,5.2-1.1,6.7c0,0.5,3.3,4.5,4,5.2c2.5,3.9,4.8,5.9,7.7,9.7c0.7,0.9,2.5,3.1,3.3,5.2c0.3,1,0.2,4.4,1.5,5.8c0.6,0.4,3.9,0.6,4.7,1.1c0.4,0.6,1.8,1.9,2.9,2.8c1.1,4.1,4.4,5.1,4.6,10.2c0.3,8.3,1.9,12.6,10,14.6c0.1,5.3,5.2,12.1,7.8,14.8c2.4,2.5,7.5,5,6.5,9.9c-0.3,1.5-2.3,6.1,0.3,6.4c0.2,4.2-0.3,8.7,1.8,12.2c1.5,2.2-0.1,2.2,0.2,2.4c0.5,0.3,6.5,2.9,7,3c0.4-0.1,1-0.6,1.4-0.8c4.5,0,5.4-3.5,9.1-6.2c3,0.2,5.5,0.4,8.3,0.7c2.6-1.4,10.7-7.6,13.5-8.4c4.9-1.3,10-2.9,14.8-5.2c-0.3-0.4-0.9-1.4-0.8-2c0.1-4.7,11.3-5.2,17.1-6.3c0-2.5,3.7-5.9,5.5-6c3.1,0.1,2.7-5.9,5.7-6c2.2,0,2-3.4,2.8-5.9c0.5-2.4,2.6-3.2,5.6-3.1c0-5.1,7.7-6.8,7.6-11.6c-0.2-1.5-2.8-1.5-3.8-3.4c0.1,0,0.1,0.1,0,0.1c-1.2-0.7-1.8-4.3-3.8-5.1c-5.8-2.1-9.4-3.1-12.5-9.4c-0.1-2.5-0.3-4.9-0.3-7.6c-7.2,5.3-7.2,13.5-21.3,13.2c-3.3-0.2-8.4-1.7-8.7-4.7c0-2.6,1.3-4.2,1.2-6.7c-0.1-0.5-0.3-1.7-0.3-2.3c-2.3,0.4-1.6,3-4.1,3.6c-0.2-1.5-1.4-2.5-1.6-4.9c-4.8-1.4-11.2-10.4-12.7-15.4c-0.4-1.3-0.4-2.9-0.6-4.8c0-3.2,0.9-6.5,4-6.5c6.1,0.3,10.8,6.9,13.3,11.6c0.4,0.6,0,2.4,1.1,3.7c2.5,2.4,5.6,1.4,8.3,4c2.2,2.2,3.9,4.8,7.2,6.1c3.4,0.2,6.7,0.2,10.1,0.5c0.9-1.1,1.7-2.9,4.1-2.9c4.2,0.3,4.5,6.3,6.4,8.5c0.1,0.2,6,2.1,6.9,2.2c5.3,0.3,13.5,3.1,17.2,3.4c0.3-0.1,0.6,0,0.9,0c1.1,0.2,2.5,0.5,3.8,0.8c0.2-0.4,0.9-0.8,1.6-1.3c1.4,0.5,3,1.1,4.7,1.7c1.8,0,3.9-0.8,6.2-0.7c1.9,0.2,3.3-0.1,5.2,0.6c2.3,1,3.4,5.5,4.9,8.2c2,3.1,6.9,7.3,10.2,7.5c1.4,0.1,2.4,0.3,3.8,0.7c-0.6,0.8-0.7,2.4-2,2.8c-1.5,0.5-2.6-0.6-4.1,0.5c2.6,3.3,4.8,9.2,9.8,9.6c4.2,0.1,4.5-4.4,6.5-6.8c0.5-0.1,0.8,0,1.2,0.1c0.1,0.6-0.9,2.2-0.8,2.6c0.2,2.7,1.8,5,1.9,8.1c0,2.5-0.7,2.8-0.7,5.5c0,0-0.1-0.1-0.1-0.1c0,0.5,0.3,2.3,0.3,2.8c-0.1,3.7,1.8,7.4,2.8,11.4c1,4.4,2.6,10.3,3.3,13.2c0.8,2.5,0.7,3.8,1.9,6.3c1.1,2.3,0.5,4.8,1.6,7.9c0.7,1.3,2.7,3.4,3.2,6.2c1,4.2,2.6,7.7,3.5,12.3c0.1,0.5,0.4,1.8,1.2,1.9c0.2,1.1,0.9,2.1,2.1,1.8c1.4,0.1,1.5-2.3,1.9-4c0.9-2,0.9-1.1,2.7-2.3c1.3-0.8,0.8-5.6,2.7-6.5c0.5-0.2,1.4-0.3,1.4-0.8c0.2-0.1,0.4,0,0.7-0.2c-0.2-1.4-0.5-3.2-0.7-4.9c0.2-3.5,1.7-6.5,1.7-11.4c0-2.9-1-7.3-1-10.6c0-4,2.8-2.9,5.1-4.2c1.2-0.3,2.2-2.6,3.3-4.3c2.2-3.6,4.4-7.5,6.6-11.3c1.7-3,5.1-3.8,7-7c1-1.8,0.6-3.7,0.9-6.4c0.6-1.7,2.5,0.6,3.2-2.1c0.8,1.4,0.8,1.9,2.6,2.2c2.5,0.2,5.1-0.5,4.9-6c1.3,0.7,3.1,2,3.6,4.7c0.7,2,0.4,5,1.3,7.4c0.7,2.3,2,4,3.1,6.2c1.3,3,1.4,3.4,2.3,7.1c0.1,0.8,0.6,1.4,0.6,2.2c-0.1,1.9-0.4,2.8-0.2,5c0.1,2.4-0.1,3.8,1.1,3.9c2.2-0.1,2.9-4.2,4.1-7.1c0.6,1.3,0.4,1.6,0.7,2.7c0.4,0.2,0.8-0.1,0.9,0.9c0.8,2.6-1.6,7.1,0.6,7.5c0.1,5.3,1.4,12.8,1.4,20.3c-0.1,1.7-1,4.9-0.2,6.3c0.2,0,0,0-0.2,0c0,0,0,0-0.2,0c-0.4,2.2-0.7,4.4-0.9,6.7c0,0.4,0.3,1,0,1c0,0.1,0.1,0.2,0.2,0.3c0.1-0.2,0.3-0.3,0.7-0.4c2.8,0.2,1.4,5.5,1.6,7.8c0.4,3.5,0.5,7,0.5,11.5c0.1,0.7,0.1,1.4,0.2,1.9c0.6-4.8,1.1-9.8,1.5-14.7c-0.3-0.5-0.7-1.1-0.9-1.7c-0.2-1.6-0.2-3.9-0.4-5.1c0.1,0,0,0,0.1,0c0-4.8-1.6-3-1.5-8c0.2-4.7,1.1-6.4,1.3-11.7c0.1-1.4,0.7-3.5,0.7-5c0-0.8-0.9-1.9,0.4-1.9c1.8,0,1.3,0.3,1.5,2.2c0,0,0,2.2,0.3,2.2c0.1,0.1,0.1,0.1,0.1,0.1c0-1.3,0.1-2.4,0.1-3.6C871.1,392.4,825.3,295.6,752.2,227.8z M677.4,331.5c-1.5-0.1-3,2.8-3.2,5c4.2,1,6.4,2.8,6.7,5.7c0,1,0.2,2.6,0.2,3.6c0.1,1.1,0.2,4.1,0.4,4.4c0.1,0.9,0.1,2.5,0.2,3.5c-2.7,0.5-5.6,0.6-9.2,0.5c-2.5-0.3-7.7-0.2-9.4-1.9c-1-1-1.9-3.1-3.7-3.8c-2.4-0.4-4.9-2.2-6.2-4c-1.2-2,0.4-3-1.4-4.9c-0.9-0.9-2.7-1.3-2.8-2.8c0.8,0,2.1,0.4,2.9,0.5c2.4-2.5,2.1-5.8,5.1-6.8c-5.7-2.8-14.4-12.2-15.1-17.3c0-1.3-4.8-3.9-4.9-6.2c-0.1-0.7,3.3-5.7,4.3-6.6c0.7,0.5,6.9-1.4,7.5-1.5c5.1-1.1,7.4-2.1,14.1-1.7c10.5,1.4,12.8,5.7,17.4,10.4c-2.9,1.3-6.6-0.6-10.2-1c-5-0.5-12.9,2.3-13.4,2.3c0.5,3,3.5,3.1,4.9,4.8c4.3,5.2,10.1,6.8,10.8,12.7c1.4-0.4,4.9-1.5,6.5-1.6c0.3,2.5,4.1,4.8,4.2,7.2C681.4,331.8,679.5,331.7,677.4,331.5z"/><path d="M631.7,159.3c-0.4,0.1-0.6,0-1,0c0,0.1,0,0.1,0.1,0.2C631,159.2,631.3,159.6,631.7,159.3z"/><path d="M614,155.1c1.5,0.3,2.3,0.7,4,1.1c-0.8-0.1-1.5-0.1-2.3-0.1c0.9,0.3,2,0.5,3,0.6c-1.1,0.1-2.2-0.2-3.4-0.2c0.7,0.5,2.1,0.9,4.7,1.4c0.6,0.3,1.1,0.7,2,0.8c1.5,0.3,1.5-0.4,3-0.4c2.2,0.1,3.6,0.7,5.7,1c0.2,0,0.1-0.3-0.2-0.3c0.6-0.1,1.1,0.1,1.7,0.3c1.8-0.1,4.1,1.7,4.1,0.1c-1.1-0.2-3-1-5.1-1.5c-2.3-0.6-3.3-0.2-5.8-0.6c-3.1-0.6-5.4-1.6-9.9-2.4c-3.5-0.7-11.5-1.7-12.8-1.4c1.4,0.4,2.4,0.6,3.9,0.8C609.1,154.7,612,154.8,614,155.1z"/><path d="M657.6,166.2c0.3,0,0.8,0.5,1.7,0.7c1.5,0.5,1.8,1,2.1,0.2c1,0.5,2.4,1,3.3,1.3c1.6,0.4,1.8,0.2,2.9,0.3c-0.8-0.4-1.9-0.9-2.7-1.4C663.2,166.9,657.3,165.1,657.6,166.2z"/><path d="M661.8,165.9c-1.3-0.7-2.7-1.3-4-1.9c-2.1-0.5-4.1-1.2-6.2-1.7c-0.8-0.1-1-0.1-1.9,0c0.3-0.1,7.1,2.5,8.1,2.8C659.2,165.5,660.5,165.7,661.8,165.9z"/><path d="M656.1,163.3c-0.4-0.2-0.7-0.3-0.9-0.5c0,0.2,0.1,0.1,0.2,0.5C655.7,163.3,655.9,163.3,656.1,163.3z"/><path d="M435.7,154c-1.1,1,1.7,1.1,4.9,1.3c-0.5,0.1-1,0.1-1.5,0.2c1,0.5,2.7,0.7,5.7,0.3c3.8-0.4,4.1-1.4,5.6-1.8c0.4,0.2,1.1,0,1.5-0.1c0.7,0.2,2.4,0.4,2.7,0.3c1.4-0.2,3.1-0.3,4.8-0.3c-2.2,0.7-7.1,1.5-9.6,1.9c-0.9-0.1-5.1,0.2-5.3,0.9c0,2,4.7,0.4,7,0.1c1.2-0.1,7.2-0.4,8.3-0.2c-2.2,0.2-4.2,0.3-6.2,0.8c0,0-4.1,0.1-6.8,0.4c0.1,1.8,9.7,1.9,14.2,2.5c2.8-0.9,2.4-2.4,5.7-3.2c0.9-0.1,2.3-0.3,2.9-0.6c2.1-1.5,4-3.5,10.5-4c0,0,1.4,0.6,4.5,0.6c-0.8,0-1.8,0.1-2.6,0.2c0.9,0.3,2.3,1.3,3.7,1.4c-0.7,1.1-2.3,0.5-2.9,1.6c2.5,0.1,6.3,0,8.6,0c-0.6,0.2-0.6,0.3-0.2,0.9c4.9-0.4,6.8-1.1,11.9-1.8c-1.8-0.5-6.9-0.2-7.1-1.9c-2,0-3.9,0-5.9,0c0.5-0.2,0.4-0.4,0-0.8c-1.2,0.2-1.9,0-3.4,0c0.5,0,1.3,0,1.9-0.1c-1.8-0.6-11.7-1.8-14.8-1.7c-0.5,0-1.3,0-1.8,0c0.6-0.4,0.8-1.2-2.1-1.1c-1.3,0.1-1.9,0.4-3.3,0.7c-0.1-0.6,0.3-0.5,0.6-1c-0.1-0.8-4.8-0.5-7.2-0.6c-2.5,0.1-3.6-0.3-3.8,0.9c-0.2,1.6,0.9,1.4,2,2.1c-4.7-0.2-3-1.8-8-1.7c-1.5,0-3,0.3-3.2,1c0.3,0.2,0.4,0.2,0.6,0.5c-1.1-0.3-2.7-0.1-4.3-0.3c0.6-0.4,1.4-0.6,2.3-0.9c-4.1,0.2-6,0.4-9,0.5c-1.8,0.1-5.7,1.5-6.5,1.8c1.3,0.3,2.9,0.8,4.3,0.7C434.8,153.8,435.2,153.9,435.7,154z"/><path d="M477.2,149.1c0.3,0,8-0.1,8.7-0.1c-0.8,0.2-2.8,0.1-4.6,0.4c-0.3,0-2.4,0.1-3.7,0.1c0.5,0.5,0.7,0.7,2.4,0.7c3.6,0,6.9-0.3,10.5-0.2c1.4,0.7,3.2,0.9,6.5,0.8c5.4-0.1,14.5-1.6,19-2.4c-1.4-0.3-4.5-1.5-8.3-1.4c-2,0-3.9,0-6,0c-2.8,0-3.9,0.5-5.5,0.5c-0.6-0.3-0.2-0.1,0-1.2c-0.7,0-1.6,0-2.2,0c-0.9,0.3-2.3,1.1-4.6,1.2c-0.8,0-6.3-0.5-7.3-0.8c-1.8,0.1-3.3,0.2-5.2,0.2c0.4,0.1,0.6,0.3,0.9,0.5c-1,0-2.2,0-3.2,0.1c0.2,0,0.2,0.3,0,0.3c-1,0-2.6,0-3.6,0c-0.8,0-1.9,0-2.7,0.1c0.1,0.9,1.2,0.7,2.7,1C470.1,150.6,473.9,149.2,477.2,149.1z"/><path d="M430.1,155c0-0.1,0.1-0.1,0-0.1c0,0-0.2,0-0.3,0C429.9,155,430,155,430.1,155c-0.1,0-0.2,0-0.3-0.1c-2.9,0.7,2.1,1.6,5.7,1.6C434.1,155.1,432.2,155.5,430.1,155z"/><path d="M304,279.2c1,0,2.7-0.6,3.6-1c1.4-0.9,4.1-3.3,7.2-3.8c1.7-0.4,3.9-0.4,5-1.4c1.8-1.1,0.6-2.5,0.7-3.5c0.1-1.4,0.4-2.7,0.7-4.2c0.3-0.9,3.3-1.4,3.6-2.4c0-2.2-1.2-4.6-5.6-4c-1,0.2-2.2,0.3-3.1,0.5c-1.8,0.2-5.7,2.3-5.9,3.2c0,0.6,0.1,0.7,0.8,1.4c-1.1,0.7-4.6,2.1-5.6,2.3c-0.5,0.2-1.9,0-2.2,1.7c-0.1,1.3,1.3,1.8,3,2c-1.4,3.1-5.8,4-6.4,7.2C299.7,278.5,301.8,279.6,304,279.2z"/><path d="M325.2,243.3c-1.3,0.4-4.5,1.4-4.8,2c0,0.5,0.3,1.3,0.8,1.2C323.2,246.1,325,244.7,325.2,243.3z"/><path d="M326.6,249c0,0.4,0,0.7-0.2,0.9c0.1,0-1.5,1.1-1.6,1.7c-0.1,0.5,1.6,0.6,2.7,0.5c0,0.4-0.1,0.7-0.2,1.1c-0.2,0.3-0.6,0.7-0.9,0.9c0,0.6-0.2,1.3-0.3,2c0.5,0,1-0.1,1.5-0.3c-0.4-0.5-0.8-0.6,0.3-1.8c0.5,0.4,1.5,0.3,3.1,0.1c-0.7,0.8-0.3,1-0.3,2.3c-0.4,0.9-2,1.9-2.2,2.8c0,1,1.1,0.8,2.9,0.5c1.4-0.3,2.6-0.9,4.5-1.3c0.6,0,1.3,0,1.7-0.1c-0.3,0.5-1.5,1-1.6,1.9c-0.2,1.3,2.5,1.1,4.5,0.7c-0.1,0.6-0.2,1.3-0.3,1.9c-1.1,1.4-5.5,3.1-9.1,3.5c-0.1,1.3,1.4,1.7,1,3.5c-0.2,2-5.5,2.6-5.9,4.7c0,0.2,0.5,0.4,0.8,0.4c0.9,0,0.7-0.7,2.1-0.8c2.1-0.4,2.5,1,5.2,0.8c1.2-0.4,2.8-0.7,3.7-1.7c0,0.3,0.1,0.6,0.3,0.9c-0.1,2-4.1,1.6-6.9,2.5c-0.5,0.2-7,5.2-7.4,5.6c-0.2,0.2-0.2,0.6-0.1,0.8c0.4-0.1,1-0.1,1.4-0.1c0.7-0.6,1.5-1.4,2.9-1.4c0.7-0.4,1.9-0.2,2.7-0.4c0.1-1,1.5-2.3,3.5-2.6c1.2-0.2,2.1,0.5,3.4,0.3c3-0.5,8.5-2.1,10.6-2.4c2.9-0.2,5.2-0.5,8.1-0.8c2.3-0.4,3.9-1.3,6-2.5c0-0.3,0.1-0.7,0.1-0.9c-1,0.1-2,0.2-4.1-0.1c2-1.8,6.6-3.6,7.1-5.8c0-1.3-1.6-2.1-4.1-2c-1.4,0.2-1.1,0-2.6,0.8c0.2-0.2,0.8-0.4,1-0.6c-0.7,0.2-1.1,0.7-2.5,1.1c0-0.3,0.1-0.6,0.1-0.8c0.5-0.1,1.1-0.6,1.1-1c0.2-1-2-1.4-1.9-2.5c0.4-3.2-4.7-3.2-7.6-4.8c-2.3-1.3-1.1-4.2-4.8-4.4c-1.4-0.1-2.7,0.5-4.5,0.5c0.3-0.5,1-1.1,1.8-1.2c0.4-2.7,6.6-4.6,6.3-8c-3.8,0.5-7.4,1-11.4,1.6c-0.2-0.3-0.4-0.4-0.4-0.8c0.7-1.8,5-2.1,5.2-3.8c0-0.2-1-0.8-1.7-0.7c-1.9,0.3-3.7,0.7-5.5,0.9c-1,0.2-3,1.4-3.2,1.9c-0.1,0.7-0.9,1.1-1.1,2.1c-1.2,0.3-2.6,0.9-2.8,1.8c0,0.3,0.4,0.6,0.8,0.6c0,0.2-0.6,0.7-0.9,0.8c-0.3-0.1-1.2-0.1-1.1-0.8c-0.9,0.1-2.1,0.2-3,0.5C322.3,249,323.8,249.2,326.6,249z"/><path d="M331.8,261.5c-0.3-0.1-0.7,0.1-0.9,0.2c-0.9,0.4-1.6,1-1.6,1.7c0.6-0.1,1.5-0.3,2.1-0.3C331.6,262.5,331.7,262,331.8,261.5z"/><path d="M289.9,221.4c-1.6,0.6-2.7,0.7-2.5-0.3c-0.7,0.3-0.5,0.6-1.8,0.5c-0.3,0.5-0.7,0.7-1.1,1.5c-1.8-0.6-3.4,1.1-5.4,1.9c-1.5,0.4-2.4,0.6-4.8,1.3c0,0.3-0.3,0.5-0.3,0.9c-0.7,0.1-0.7-0.3-1.9,0.1c-1.4,0.5-2.4,1.1-3.8,1.7c-1,0.4-0.8,0-1.7-0.1c-0.5,0.5-0.4,0.2-0.4,1.1c-0.8,0.3-1.8,1.2-2.8,1.4c-1.1,0.6-1.9-0.1-1.5-0.9c0-0.7-0.4-0.3-0.4-1c-0.4,0.1-0.7,0.3-1.1,0.4c-1.4,0.5-1.7,1.5-2.9,1.9c0,0.3-0.2,0.4-0.2,0.7c-1.1,0.2-1.3,0.3-2.7,0.9c0,1.3,4.7-0.1,6.4-0.8c0,0.3-0.2,0.5,0.3,0.5c-1.7,0.9-5.5,2.8-7.6,3.5c1.9,0.9,3.6-1.3,5.9-1.9c-0.6,1.3-1.4,1.7-1.7,2.9c-0.5,0.2-0.9,0.6-1.5,0.9c3.2-1.1,3.9-0.2,5.8-0.7c4.1-0.4,7.3-1,13.2-2.6c5.6-1.6,8.6-4,13-5.8c2.1-1,6.7-3.5,8.4-5.2c0.2,0,0.3-0.2,0.4-0.2c0.7-2.5-5.5-0.3-4.7-2.9c0-0.3,0.8-0.7,1.3-1.1C292.4,220.3,291.4,221,289.9,221.4z"/><path d="M176.7,630.4c1.7-5.7,5.5-10.6,4-23.2c-0.6-3.3-1.4-7-3.9-8.5c-1.6-0.9-2.4-0.2-4.1-1.2c-1.8-1.1-5.7-6.4-6.9-9.1c-1.3-1.1-2.9-2.6-5-3.6c-2.1-0.4-2.3,0-3.5,0c-1.9-0.5-2.4-3.1-4.3-3.5c-1.4-0.8-0.4,0.2-1.7,1.3c-0.3-0.2-0.1-0.3-0.5-0.1c-0.1-1.4-0.2-2.4-0.6-4c-0.3-1.3-1.1-1.1-1.8-2.1c-1.3-1.4-4.2-5.2-5.6-5.6c-1-0.5-1.5,0-1.7,0.8c0-0.9,0-2-0.1-2.5c-0.1-0.3,0-1.5-0.6-1.7c-0.8,0.2-0.7,1.7-1.1-0.6c-1.4-0.2-0.9-0.8-1.5-2c0-0.2-0.2,0.1-0.3,0c-1.9-0.3-0.8,1.3-0.7,3.8c0.3,1.5,2,5.1,3.1,5.4c0.6,0.4,0.9,0,1.1-0.8c0,0.8,0,1.8-0.2,2.5c-0.2,0.8,0.2,1.7-0.5,1.5c-0.5,0.1-0.5-1.3-0.6-1.8c-1.1-0.7-0.1-0.3-1.5-0.5c-0.3-1.8-0.7-2.8-1.5-3.9c-0.5-0.7-0.9-0.4-1-1.9c-0.5-4.5,0.8-9.5,1.6-12.5c0-1.5-1-1.7-1.4-3.4c-0.5-1.6-1.7-6.7-1.8-8.8c-2.2-1.7-1-5.2-3.3-6.2c5,48.6,19.4,94.3,41.2,135.6c0.5,0.3,0.7,0.8,1.6,1.3c1.6,0.8,2.7-0.1,2.7-1.5c0-0.7-0.7-1.7-0.4-2.8c0.5-2.2,0.7-3.2,1.2-5.9c0.3-0.6-0.4-3.2-0.7-4.6c-0.3-1.2,0.3-1.9,0.4-2.8c0.3-0.4,0.1-0.8,0.1-1.6c-0.6-1.8-1.6-9.4-2.1-12.1c-1.1-3.7-2.8-5.7-1.8-7.7c1.3-2,1.8-1.2,2.4-3.2C176,631.4,176.2,631.6,176.7,630.4z"/><path d="M275.7,204.3c-1.3,1-2.5,1.9-3.8,2.9c1.8-0.9,3.6-1.8,4.7-2.9C276.1,204.4,275.8,204.4,275.7,204.3z"/><path d="M258.5,222c2.5-1.6,3.8-1.9,6.1-3.5c-1.9,0.7-8.4,3.6-11.4,4.3c-3.1,2.8-6.1,5.5-9.1,8.3c1.3-0.7,2.6-1.5,4.1-2.3C251.9,226.7,254,224.4,258.5,222z"/><path d="M280.3,200.9c-1.2,0.9-2.3,1.7-3.5,2.6c2.3-1.1,4.6-2.5,5.6-3.4C281.9,200.3,281.1,200.6,280.3,200.9z"/><path d="M269.1,210.1c0.3-0.5-0.1-0.3-0.9,0.1c-1.3,1-2.5,2.1-3.8,3c0.7-0.3,1.3-0.6,2-0.8C268.2,211.4,268.7,211,269.1,210.1z"/><path d="M264.6,217.6c1.4-0.5,3.3-1.4,3.9-2.1c0.8-2.2-1.8-2.1-4.7-1.7c-1.7,1.4-3.4,2.9-5,4.3C260.3,218,259.9,219.4,264.6,217.6z"/><path d="M290.5,195.6c-0.9,0.2-1.5,0.4-2.3,0.8c0-0.4,0.3-0.3,0.3-0.7c-0.8,0.3-1.4,0.5-2.1,0.8c-0.7,0.5-1.4,0.9-2,1.5c0,0.3,0.4,0.3,1.3,0.1C287.2,197.2,289.7,195.9,290.5,195.6z"/><path d="M440.2,341.2c-3.4-0.5-4.7,1.4-7.7,1.4c-3.1,0-4.9-2.2-9.8-0.3c0,0.4-0.1,1,0,1.4c0.6,0.6,2.6,0.7,3.1,0.8c3.6,1,6.2,3.8,10.2,4.6c-0.3,0.4,1.3,0.8,1.8,0.7c0.5,0,1.3-0.9,1.4-1.3c-0.1-1.2-1-1.7-1-3c0-0.6,1.2-2.1,1.2-2.1C439.4,342.8,439.9,341.7,440.2,341.2z"/><path d="M405.8,314.8c-0.5,0-0.7-1.2-0.7-1.9c-0.8,0.3-2.1,1.8-3.5,2c-0.4,0.2-1.1,0.2-1.5,0.5c0.9,1.1,1.4,6.4,3.5,6.7C403.9,321.1,405.1,317.1,405.8,314.8z"/><path d="M400,329.6c-0.2,1-1.1,2.3-1.5,3.7c-0.1,1.3-0.3,3.8,2,3.8c1.4-0.2,5.8-2.8,6-5.4c0.1-3,0.7-4.5-1-7.4c-0.5-0.1-1.3-1-2.8-0.9c-1.5,0.2-2.2,1.8-4.7,2.5C398.1,327.1,400,328.1,400,329.6z"/><path d="M366.6,333.5c-0.9,0.3-2.1,0.8-3.4,1.5c0.2,0,1.9,1.5,2.6,1.4c0.5,0,1.6-0.6,1.7-1C367.7,335,366.6,333.8,366.6,333.5z"/><path d="M419.7,248.8c0.1-0.8-0.9-0.6-0.8-1.6c-0.7,0-1.9,0.1-2.6,0.2c-0.1,0.2-0.1,0.5-0.1,0.7c-0.1,0.8,1.5,1.1,3.1,0.8c0,0.2,0,0.4,0,0.6C419.4,249.4,419.6,249.5,419.7,248.8z"/><path d="M421.1,249.3c-0.1,0.1-0.5,0.4-0.7,0.5c0.1,0,1.1,0.4,1.9,0.4c3.2,0,2.1-2.9,4.5-3.5c-0.6-1.3-0.7-2-3.5-1.9c-0.7,0.1-2.7,2.2-2.7,2.5c0,0.5,1.4,1,2.8,1.1c0,0.4-1.2,0.9-2,1.2C421.2,249.4,421.1,249.4,421.1,249.3z"/><path d="M464.3,236.8c0.5-0.1,2.5-0.6,2.5-0.9c0-0.3,0-0.6,0-0.9c0.2,0,0.9-0.7,1.1-1c-0.4-0.2-1.1-0.5-1.5-0.7c0,0-1.4,0.4-1.3,0.8c-0.1,0.3,0.6,0.6,0.9,0.9c-0.9,0.2-2.2,0.6-3.1,0.7C462.8,236.1,463.3,236.8,464.3,236.8z"/><path d="M510.5,358.7c-4-1-9.2-2-14.4-1.2c2.7,1.1,6.8,1.5,8.7,1.6C506,359,507.4,360.1,510.5,358.7z"/><path d="M560.9,359.6c0.3-0.5-0.1-1.7,0.5-1.9c1-0.4,2.4,0.2,2.8-1.6c-3.8,0.4-9.5,2.2-13,3.5c0.1,0.3,0.8,0.9,1.1,0.9c0,0.5,1.1,1,1.6,1C556,361.5,560.2,360.5,560.9,359.6z"/><path d="M686.4,506.7c1.3,0,3.4-2.2,3.6-2.9c-2.7,0-4.1,0.5-5.9,1.2C684.2,505.9,685.9,506.7,686.4,506.7z"/><path d="M632.4,193.1c-0.3-0.1-2.1,0.7-2,1.1c0.2,0.8,1.1,1,3.3,1.3c3,0.8,5,0.4,7.3,0.1c0.2-0.3,0-0.5-0.1-0.8c-2.6-0.7-3.9-1.6-6.4-2C633.6,192.7,633.2,193.1,632.4,193.1z"/><path d="M680.8,200.1c0,1,4.1,2.4,6,2.9c0,0,2.1,0.8,2,0.2C687.9,201.8,680.4,199,680.8,200.1z"/></g></g><g></g><g></g><g></g><g></g><g></g><g></g><g></g><g></g><g></g><g></g><g></g><g></g><g></g><g></g><g></g></g>
</svg>