<?xml version="1.0" encoding="UTF-8" standalone="no"?>
<!DOCTYPE svg PUBLIC "-//W3C//DTD SVG 1.1//EN" "http://www.w3.org/Graphics/SVG/1.1/DTD/svg11.dtd">
<svg version="1.1" xmlns="http://www.w3.org/2000/svg" xmlns:xlink="http://www.w3.org/1999/xlink" preserveAspectRatio="xMidYMid meet" viewBox="0 0 640 640" width="640" height="640"><defs><path d="M445 288.43C445 357.42 388.99 413.43 320 413.43C251.01 413.43 195 357.42 195 288.43C195 219.44 251.01 163.43 320 163.43C388.99 163.43 445 219.44 445 288.43Z" id="kOLLsT7Am"></path><path d="M433 288.43C433 350.8 382.37 401.43 320 401.43C257.63 401.43 207 350.8 207 288.43C207 226.07 257.63 175.43 320 175.43C382.37 175.43 433 226.07 433 288.43Z" id="a3PPP96OD"></path><path d="M378.6 423.8C382.13 423.8 385 426.67 385 430.2C385 431.48 385 428.92 385 430.2C385 433.74 382.13 436.6 378.6 436.6C353.88 436.6 286.12 436.6 261.4 436.6C257.87 436.6 255 433.74 255 430.2C255 428.92 255 431.48 255 430.2C255 426.67 257.87 423.8 261.4 423.8C286.12 423.8 353.88 423.8 378.6 423.8Z" id="fcR7nXYgD"></path><path d="M378.6 442.09C382.13 442.09 385 444.95 385 448.49C385 449.77 385 447.21 385 448.49C385 452.02 382.13 454.89 378.6 454.89C353.88 454.89 286.12 454.89 261.4 454.89C257.87 454.89 255 452.02 255 448.49C255 447.21 255 449.77 255 448.49C255 444.95 257.87 442.09 261.4 442.09C286.12 442.09 353.88 442.09 378.6 442.09Z" id="bOt9muHP2"></path><path d="M378.6 460.37C382.13 460.37 385 463.24 385 466.77C385 468.05 385 465.49 385 466.77C385 470.31 382.13 473.17 378.6 473.17C353.88 473.17 286.12 473.17 261.4 473.17C257.87 473.17 255 470.31 255 466.77C255 465.49 255 468.05 255 466.77C255 463.24 257.87 460.37 261.4 460.37C286.12 460.37 353.88 460.37 378.6 460.37Z" id="d2lB7oreab"></path><path d="M341.67 480C343.51 480 345 481.49 345 483.33C345 485.23 345 487.57 345 489.47C345 491.31 343.51 492.8 341.67 492.8C332.33 492.8 307.67 492.8 298.33 492.8C296.49 492.8 295 491.31 295 489.47C295 487.57 295 485.23 295 483.33C295 481.49 296.49 480 298.33 480C307.67 480 332.33 480 341.67 480Z" id="b1Xo7ugWqr"></path></defs><g><g><g><use xlink:href="#kOLLsT7Am" opacity="1" fill="#60e881" fill-opacity="0"></use><g><use xlink:href="#kOLLsT7Am" opacity="1" fill-opacity="0" stroke="#f2c407" stroke-width="10" stroke-opacity="1"></use></g></g><g><use xlink:href="#a3PPP96OD" opacity="1" fill="#60e881" fill-opacity="0"></use><g><use xlink:href="#a3PPP96OD" opacity="1" fill-opacity="0" stroke="#debb56" stroke-width="10" stroke-opacity="1"></use></g></g><g><use xlink:href="#fcR7nXYgD" opacity="1" fill="#8e8e8e" fill-opacity="1"></use></g><g><use xlink:href="#bOt9muHP2" opacity="1" fill="#8e8e8e" fill-opacity="1"></use></g><g><use xlink:href="#d2lB7oreab" opacity="1" fill="#8e8e8e" fill-opacity="1"></use></g><g><use xlink:href="#b1Xo7ugWqr" opacity="1" fill="#8e8e8e" fill-opacity="1"></use></g></g></g></svg>